<?xml version="1.0" encoding="UTF-8" standalone="no"?>
<svg
   xmlns:dc="http://purl.org/dc/elements/1.1/"
   xmlns:cc="http://creativecommons.org/ns#"
   xmlns:rdf="http://www.w3.org/1999/02/22-rdf-syntax-ns#"
   xmlns:svg="http://www.w3.org/2000/svg"
   xmlns="http://www.w3.org/2000/svg"
   xmlns:sodipodi="http://sodipodi.sourceforge.net/DTD/sodipodi-0.dtd"
   xmlns:inkscape="http://www.inkscape.org/namespaces/inkscape"
   version="1.1"
   id="svg847"
   width="76.800003"
   height="77.760002"
   viewBox="0 0 76.800003 77.760002"
   sodipodi:docname="contacticon.svg"
   inkscape:version="1.0.1 (3bc2e813f5, 2020-09-07)">
  <metadata
     id="metadata853">
    <rdf:RDF>
      <cc:Work
         rdf:about="">
        <dc:format>image/svg+xml</dc:format>
        <dc:type
           rdf:resource="http://purl.org/dc/dcmitype/StillImage" />
        <dc:title />
      </cc:Work>
    </rdf:RDF>
  </metadata>
  <defs
     id="defs851" />
  <sodipodi:namedview
     pagecolor="#ffffff"
     bordercolor="#666666"
     borderopacity="1"
     objecttolerance="10"
     gridtolerance="10"
     guidetolerance="10"
     inkscape:pageopacity="0"
     inkscape:pageshadow="2"
     inkscape:window-width="2256"
     inkscape:window-height="1410"
     id="namedview849"
     showgrid="false"
     inkscape:zoom="9.4521602"
     inkscape:cx="38.400002"
     inkscape:cy="38.880001"
     inkscape:window-x="-11"
     inkscape:window-y="-11"
     inkscape:window-maximized="1"
     inkscape:current-layer="g855"
     inkscape:document-rotation="0" />
  <g
     inkscape:groupmode="layer"
     inkscape:label="Image"
     id="g855">
    <path
       style="fill:#ffffff;stroke-width:0.32"
       d="m 8.9875317,77.029318 c -0.835812,-0.923562 -0.741426,-1.697274 0.759432,-6.225303 1.4859483,-4.48304 2.1014313,-5.380675 4.0627893,-5.925267 1.566499,-0.434957 49.606869,-0.469917 51.480873,-0.03747 1.986364,0.458381 2.773587,1.624976 4.269888,6.327613 0.731561,2.299184 1.330112,4.410151 1.330112,4.691037 0,0.280886 -0.288,0.798704 -0.64,1.150704 -0.630906,0.630906 -1.066666,0.64 -30.670405,0.64 -29.323011,0 -30.0436503,-0.01462 -30.5926893,-0.621318 z M 14.462549,58.52212 c -0.499442,-0.303315 -1.219442,-1.127485 -1.6,-1.831485 -0.683739,-1.264857 -0.692987,-1.502508 -0.78173,-20.089392 -0.05967,-12.498333 0.02376,-19.231158 0.248676,-20.066415 0.186165,-0.691363 0.821359,-1.769022 1.411542,-2.394798 l 1.073061,-1.137776 11.158263,0.08419 11.158263,0.08419 v 2.24 2.24 l -10.48,0.08437 -10.479999,0.08437 V 35.895 53.970629 h 23.36 23.36 v -12 -12 h 2.093495 2.093494 l -0.09349,13.04 -0.09349,13.04 -0.745229,1.044829 c -1.495443,2.096647 -0.144301,1.996032 -26.678881,1.986656 -22.233077,-0.0079 -24.166093,-0.05115 -25.003967,-0.56 z m 24.25221,-5.624256 c -1.479792,-0.670851 -2.704135,-2.301661 -2.704135,-3.601875 0,-0.608048 0.303972,-2.001002 0.675495,-3.09545 0.538665,-1.586829 0.640569,-2.46408 0.503094,-4.330826 -0.09672,-1.313353 -0.393238,-2.677964 -0.675494,-3.108742 -0.691907,-1.055981 -0.630176,-1.493498 0.193664,-1.372592 0.805577,0.118227 7.602359,8.844599 8.63784,11.090099 0.73233,1.5881 0.497875,2.621575 -0.890665,3.926042 -0.970877,0.91209 -4.203261,1.18992 -5.739799,0.493344 z m 4.861754,-1.530336 c 2.121507,-1.993056 -0.681044,-5.436589 -3.975952,-4.885312 -0.957716,0.16024 -2.309937,1.481997 -2.309937,2.257901 0,1.440889 1.150711,2.813958 2.880001,3.436528 0.891331,0.32089 2.647017,-0.0962 3.405888,-0.809117 z m 4.253712,-6.281939 c -1.660781,-2.070775 -3.6676,-4.6532 -4.4596,-5.73872 -1.257143,-1.72305 -1.676874,-2.056071 -3.30538,-2.622541 -1.714413,-0.596355 -1.976608,-0.611104 -3.239795,-0.18224 -1.36711,0.464147 -1.413322,0.454009 -8.694621,-1.90753 -4.026113,-1.305789 -7.932205,-2.552149 -8.680205,-2.769693 -1.38739,-0.403501 -1.948515,-1.084827 -0.64,-0.777099 2.067852,0.486305 20.319092,4.000504 20.782548,4.001595 0.366697,9.6e-4 -0.9681,-1.9932 -4.118279,-6.152308 -2.563456,-3.38447 -4.731712,-6.338304 -4.818348,-6.564075 -0.08664,-0.225772 0.02532,-0.6308 0.248786,-0.900064 0.591326,-0.712504 5.1381,-2.743866 5.89793,-2.635017 1.248909,0.178912 0.637271,1.057974 -1.511763,2.172738 -1.18752,0.616 -2.15952,1.309703 -2.16,1.541564 -9.6e-4,0.512485 0.797718,0.297966 2.985571,-0.801798 0.850544,-0.427541 1.858544,-0.721724 2.24,-0.653738 0.518899,0.09248 0.06903,0.421991 -1.786445,1.308481 -1.364,0.651679 -2.48,1.32451 -2.48,1.495181 0,0.517266 0.702804,0.355786 2.828733,-0.649943 1.115802,-0.527861 2.231802,-0.959747 2.48,-0.959747 1.005476,0 0.330967,0.570144 -1.788733,1.511965 -1.232,0.5474 -2.24,1.151145 -2.24,1.341654 0,0.53448 0.513376,0.425098 2.88,-0.613619 2.422471,-1.063229 2.560001,-1.097828 2.560001,-0.644023 0,0.173787 -1.008,0.823597 -2.240001,1.444023 -1.232,0.620425 -2.24,1.270235 -2.24,1.444023 0,0.48648 0.380458,0.393521 2.70713,-0.661442 3.12432,-1.416635 3.727136,-0.997521 0.732871,0.509539 -2.324673,1.170044 -3.012807,1.748216 -2.080001,1.747627 0.22,-1.39e-4 1.312929,-0.432139 2.428733,-0.96 1.115802,-0.527861 2.231802,-0.959747 2.48,-0.959747 0.985968,0 0.337812,0.555797 -1.993299,1.709261 -1.668214,0.825454 -2.340483,1.31369 -2.116826,1.537347 0.223658,0.223657 0.959629,0.01423 2.317409,-0.659433 2.000435,-0.99252 3.432262,-1.29542 3.027472,-0.640457 -0.117856,0.190695 -1.134356,0.772577 -2.258887,1.293072 -1.124531,0.520494 -2.044601,1.084471 -2.044601,1.253281 0,0.473541 0.396617,0.38198 2.828953,-0.653071 2.456352,-1.045273 2.611047,-1.086676 2.611047,-0.698838 0,0.143639 -0.871197,0.677556 -1.935994,1.186482 -2.104307,1.005767 -2.776221,1.571066 -2.252262,1.894893 0.177552,0.109732 1.156544,-0.218668 2.175539,-0.729779 2.3444,-1.175915 3.292717,-1.474963 3.292717,-1.038345 0,0.185647 -1.008,0.845162 -2.24,1.465587 -1.232,0.620425 -2.24,1.270237 -2.24,1.444022 0,0.448899 0.09725,0.423351 2.451286,-0.644022 3.667328,-1.662846 4.072218,-0.941434 0.444707,0.792355 -1.851577,0.884973 -2.434697,1.447645 -1.500256,1.447645 0.239658,0 1.407184,-0.440474 2.594506,-0.978829 2.804496,-1.271619 3.332691,-0.95816 0.917475,0.544483 -0.916,0.569895 1.968944,-0.02448 3.994992,-0.823072 2.275332,-0.896851 4.040785,-0.847382 6.083329,0.170461 2.668512,1.329776 3.394249,3.555901 1.708745,5.241405 -0.892467,0.892467 -2.720861,1.600282 -4.142771,1.603766 -0.916211,0.0022 -5.192013,2.133037 -5.192013,2.587373 0,0.421136 0.942637,0.141536 2.986445,-0.885821 0.850544,-0.427542 1.858544,-0.72766 2.24,-0.666934 0.525462,0.08365 0.137037,0.396506 -1.602637,1.290823 -3.677747,1.890633 -3.45049,2.635475 0.267459,0.876598 2.097114,-0.992096 2.828733,-1.16656 2.828733,-0.674544 0,0.157136 -1.008,0.758643 -2.24,1.336678 -1.232,0.578036 -2.24,1.243399 -2.24,1.478589 0,0.342135 0.239872,0.325629 1.2,-0.08259 2.938659,-1.249415 3.597162,-1.465866 4.140967,-1.361136 1.26328,0.243283 0.495878,1.103638 -2.140967,2.400291 -1.496,0.735651 -2.945181,1.347651 -3.2204,1.36 -0.275222,0.01235 -1.859222,-1.671818 -3.52,-3.742592 z m 2.537728,-3.31762 c 1.603894,-0.666547 2.135331,-1.237334 1.152035,-1.237334 -0.529657,0 -3.669363,1.510566 -3.669363,1.765392 0,0.325373 0.936403,0.128947 2.517328,-0.528058 z m -1.494839,-1.109648 c 0.716461,-0.370499 0.875085,-0.583776 0.573021,-0.77046 -0.443289,-0.273968 -2.55551,0.570787 -2.55551,1.022041 0,0.417879 0.911606,0.302192 1.982489,-0.251581 z m 8.008574,-1.052886 c 1.005254,-0.383334 1.446579,-1.630374 1.013148,-2.862829 -0.711824,-2.024061 -5.012969,-2.900202 -6.657782,-1.356192 -2.687268,2.522579 1.630397,5.74977 5.644634,4.219021 z m -9.671063,-0.389037 c 0,-0.365635 -0.86776,-0.373894 -1.092416,-0.0104 -0.0936,0.151453 -0.08802,0.35753 0.01242,0.457952 0.249705,0.249725 1.08,-0.09435 1.08,-0.447552 z M 36.223159,35.869125 c 0.105846,-0.275831 0.02829,-0.665658 -0.17233,-0.866285 -0.450381,-0.450381 -1.51735,0.46992 -1.179184,1.017088 0.319392,0.516784 1.130045,0.426333 1.351514,-0.150803 z M 34.394103,33.58756 c -0.695741,-0.108372 -1.24009,-0.940381 -3.68,-5.624684 -3.298414,-6.332517 -3.209986,-6.14528 -2.775444,-5.876718 0.424753,0.262511 8.711965,11.202042 8.711965,11.500227 0,0.228624 -0.793625,0.229037 -2.256521,0.0013 z m 14.096522,-1.203956 c 0,-0.277641 0.504,-2.063829 1.12,-3.969307 0.616,-1.905479 1.12,-3.558817 1.12,-3.674084 0,-0.115268 -1.50095,-0.209578 -3.335447,-0.209578 -3.113241,0 -3.400416,-0.05467 -4.31064,-0.820569 -0.536355,-0.451312 -1.122598,-1.351312 -1.302768,-2 -0.184621,-0.664725 -0.328137,-4.810299 -0.328864,-9.499432 -0.0013,-9.3023412 0.110439,-9.8743362 2.20504,-11.27362115 1.082026,-0.72284 1.145165,-0.726353 12.960001,-0.721115 11.723149,0.0052 11.888714,0.01435 13.14593,0.726395 2.157536,1.22196395 2.368947,2.23519095 2.389347,11.45133715 0.02627,11.872183 -0.124617,12.137005 -6.9156,12.137005 h -4.286695 l -5.83015,3.943817 c -7.116157,4.813738 -6.630154,4.527188 -6.630154,3.909152 z"
       id="path1420" />
  </g>
</svg>
