<?xml version="1.0" encoding="UTF-8" standalone="no"?>
<svg
   xmlns:dc="http://purl.org/dc/elements/1.1/"
   xmlns:cc="http://creativecommons.org/ns#"
   xmlns:rdf="http://www.w3.org/1999/02/22-rdf-syntax-ns#"
   xmlns:svg="http://www.w3.org/2000/svg"
   xmlns="http://www.w3.org/2000/svg"
   xmlns:sodipodi="http://sodipodi.sourceforge.net/DTD/sodipodi-0.dtd"
   xmlns:inkscape="http://www.inkscape.org/namespaces/inkscape"
   version="1.1"
   id="svg2012"
   width="76.800003"
   height="77.760002"
   viewBox="0 0 76.800003 77.760002"
   sodipodi:docname="facebookicon.svg"
   inkscape:version="1.0.1 (3bc2e813f5, 2020-09-07)">
  <metadata
     id="metadata2018">
    <rdf:RDF>
      <cc:Work
         rdf:about="">
        <dc:format>image/svg+xml</dc:format>
        <dc:type
           rdf:resource="http://purl.org/dc/dcmitype/StillImage" />
        <dc:title></dc:title>
      </cc:Work>
    </rdf:RDF>
  </metadata>
  <defs
     id="defs2016" />
  <sodipodi:namedview
     pagecolor="#ffffff"
     bordercolor="#666666"
     borderopacity="1"
     objecttolerance="10"
     gridtolerance="10"
     guidetolerance="10"
     inkscape:pageopacity="0"
     inkscape:pageshadow="2"
     inkscape:window-width="2256"
     inkscape:window-height="1410"
     id="namedview2014"
     showgrid="false"
     inkscape:zoom="9.4521602"
     inkscape:cx="38.400002"
     inkscape:cy="38.880001"
     inkscape:window-x="-11"
     inkscape:window-y="-11"
     inkscape:window-maximized="1"
     inkscape:current-layer="g2020" />
  <g
     inkscape:groupmode="layer"
     inkscape:label="Image"
     id="g2020">
    <path
       style="fill:#ffffff;stroke-width:0.32"
       d="m 1.9097397,77.127732 c -2.14543467,-1.308148 -2.01553562,1.126278 -2.01553562,-37.772955 0,-38.8992339 -0.12989905,-36.4648084 2.01553562,-37.7729565 0.9996949,-0.6095497 1.8778534,-0.6246816 36.3203573,-0.6258488 38.970468,-0.00132 36.528785,-0.1313091 37.837064,2.0143394 0.60959,0.9997566 0.624652,1.8772687 0.624652,36.3844659 0,34.507198 -0.01507,35.384708 -0.624652,36.384465 -1.203965,1.97457 -1.464071,2.015536 -12.797063,2.015536 H 53.014206 v -14.88 -14.880001 h 4.913056 4.913053 l 0.535853,-4.08 c 0.294717,-2.244 0.623901,-4.836 0.731517,-5.76 l 0.195667,-1.68 h -5.644573 -5.644573 v -4.975891 c 0,-5.80088 0.238643,-6.567626 2.341223,-7.522228 1.087513,-0.493749 2.104515,-0.609145 5.418777,-0.614854 l 4.080001,-0.007 V 18.2409 13.126997 l -0.786864,-0.19749 c -0.432775,-0.10862 -3.132775,-0.219364 -6.000001,-0.246097 -4.23775,-0.03951 -5.572371,0.06088 -7.133136,0.536567 -4.661619,1.420761 -7.525588,4.206447 -9.16001,8.90964 -0.602563,1.733929 -0.724781,2.911103 -0.849811,8.185187 l -0.146035,6.16 h -4.922074 -4.922071 v 5.76 5.76 h 4.96 4.960001 v 14.880001 14.88 l -18.960001,-0.0013 C 3.6538321,77.752218 2.8953206,77.728602 1.9097397,77.127648 Z"
       id="path2585" />
  </g>
</svg>
