<?xml version="1.0" encoding="UTF-8" standalone="no"?>
<svg
   xmlns:dc="http://purl.org/dc/elements/1.1/"
   xmlns:cc="http://creativecommons.org/ns#"
   xmlns:rdf="http://www.w3.org/1999/02/22-rdf-syntax-ns#"
   xmlns:svg="http://www.w3.org/2000/svg"
   xmlns="http://www.w3.org/2000/svg"
   xmlns:sodipodi="http://sodipodi.sourceforge.net/DTD/sodipodi-0.dtd"
   xmlns:inkscape="http://www.inkscape.org/namespaces/inkscape"
   version="1.1"
   id="svg1437"
   width="76.800003"
   height="77.760002"
   viewBox="0 0 76.800003 77.760002"
   sodipodi:docname="instaicon.svg"
   inkscape:version="1.0.1 (3bc2e813f5, 2020-09-07)">
  <metadata
     id="metadata1443">
    <rdf:RDF>
      <cc:Work
         rdf:about="">
        <dc:format>image/svg+xml</dc:format>
        <dc:type
           rdf:resource="http://purl.org/dc/dcmitype/StillImage" />
        <dc:title />
      </cc:Work>
    </rdf:RDF>
  </metadata>
  <defs
     id="defs1441" />
  <sodipodi:namedview
     pagecolor="#ffffff"
     bordercolor="#666666"
     borderopacity="1"
     objecttolerance="10"
     gridtolerance="10"
     guidetolerance="10"
     inkscape:pageopacity="0"
     inkscape:pageshadow="2"
     inkscape:window-width="2256"
     inkscape:window-height="1410"
     id="namedview1439"
     showgrid="false"
     inkscape:zoom="6.6836866"
     inkscape:cx="29.607022"
     inkscape:cy="43.803958"
     inkscape:window-x="-11"
     inkscape:window-y="-11"
     inkscape:window-maximized="1"
     inkscape:current-layer="g1445"
     inkscape:document-rotation="0" />
  <g
     inkscape:groupmode="layer"
     inkscape:label="Image"
     id="g1445">
    <path
       style="fill:#ffffff;stroke-width:0.32"
       d="M 21.343263,76.42904 C 9.6808687,75.378963 2.9736037,69.682319 0.80674202,58.98687 0.28370772,56.405215 0.22326382,54.267068 0.22326382,38.346869 c 0,-15.920198 0.060444,-18.058347 0.5834782,-20.640001 C 2.7007929,8.3579896 8.0930907,2.8421196 17.343264,0.79138902 c 2.893387,-0.6414539 3.911955,-0.6739573 21.12,-0.6739573 17.208045,0 18.226611,0.032503 21.12,0.6739573 9.250173,2.05073058 14.642471,7.56660058 16.536523,16.91547898 0.523033,2.581654 0.583478,4.719803 0.583478,20.640001 0,15.920199 -0.06044,18.058346 -0.583478,20.640001 -1.881133,9.285117 -7.294689,14.865072 -16.376523,16.879898 -2.635289,0.584646 -4.266685,0.646694 -19.2,0.730262 -8.976001,0.05023 -17.616001,-0.02538 -19.200001,-0.16799 z m 37.440001,-7.469466 c 5.83578,-1.678371 8.711105,-4.592986 10.311805,-10.452704 0.513012,-1.877994 0.568196,-3.835914 0.568196,-20.160001 0,-16.324088 -0.05518,-18.282008 -0.568196,-20.160001 -1.618723,-5.925704 -4.546102,-8.8530814 -10.471805,-10.4718064 -1.877993,-0.513012 -3.835913,-0.568194 -20.16,-0.568194 -16.324088,0 -18.282009,0.05518 -20.160001,0.568194 -5.860052,1.600791 -8.7770046,4.4786834 -10.4517672,10.3118064 -0.4821104,1.679169 -0.5662384,4.005746 -0.6707002,18.548315 -0.1248438,17.380035 0.02247,20.252787 1.2177056,23.74648 1.7424528,5.093213 5.7240188,8.095805 11.9847618,9.037984 1.056,0.158919 9.696,0.258157 19.200001,0.220532 15.275661,-0.06048 17.502704,-0.132461 19.2,-0.620605 z M 35.43838,57.846178 c -4.252368,-0.652969 -7.785767,-2.459942 -10.900125,-5.574301 -3.879582,-3.879581 -5.697349,-8.322422 -5.697349,-13.925008 0,-5.602586 1.817767,-10.045426 5.697349,-13.925008 3.879582,-3.879582 8.322423,-5.697349 13.925009,-5.697349 5.602585,0 10.045427,1.817767 13.925008,5.697349 3.879581,3.879582 5.697347,8.322422 5.697347,13.925008 0,5.602586 -1.817766,10.045427 -5.697347,13.925008 -4.444791,4.444791 -10.766468,6.523796 -16.949892,5.574301 z m 6.064884,-7.134301 c 4.688601,-1.252435 8.072573,-4.636406 9.325008,-9.325008 2.41911,-9.056163 -6.348845,-17.824119 -15.405009,-15.405007 -4.688602,1.252435 -8.072571,4.636405 -9.325007,9.325007 -2.418887,9.055322 6.349686,17.823895 15.405008,15.405008 z M 56.4788,21.719823 c -2.776525,-1.692946 -2.660726,-6.360965 0.194423,-7.837419 0.527043,-0.272545 1.702352,-0.495536 2.611798,-0.495536 1.494109,0 1.773322,0.119783 2.895891,1.242353 1.12257,1.12257 1.242352,1.401782 1.242352,2.895892 0,3.012491 -1.679638,4.819363 -4.48,4.819363 -0.864995,0 -1.849078,-0.249429 -2.464464,-0.624653 z"
       id="path2010" />
  </g>
</svg>
