<?xml version="1.0" encoding="UTF-8" standalone="no"?>
<svg
   xmlns:dc="http://purl.org/dc/elements/1.1/"
   xmlns:cc="http://creativecommons.org/ns#"
   xmlns:rdf="http://www.w3.org/1999/02/22-rdf-syntax-ns#"
   xmlns:svg="http://www.w3.org/2000/svg"
   xmlns="http://www.w3.org/2000/svg"
   xmlns:sodipodi="http://sodipodi.sourceforge.net/DTD/sodipodi-0.dtd"
   xmlns:inkscape="http://www.inkscape.org/namespaces/inkscape"
   version="1.1"
   id="svg833"
   width="279.35999"
   height="267.20001"
   viewBox="0 0 279.35999 267.20001"
   sodipodi:docname="scissors.svg"
   inkscape:version="1.0.1 (3bc2e813f5, 2020-09-07)">
  <metadata
     id="metadata839">
    <rdf:RDF>
      <cc:Work
         rdf:about="">
        <dc:format>image/svg+xml</dc:format>
        <dc:type
           rdf:resource="http://purl.org/dc/dcmitype/StillImage" />
        <dc:title></dc:title>
      </cc:Work>
    </rdf:RDF>
  </metadata>
  <defs
     id="defs837" />
  <sodipodi:namedview
     pagecolor="#ffffff"
     bordercolor="#666666"
     borderopacity="1"
     objecttolerance="10"
     gridtolerance="10"
     guidetolerance="10"
     inkscape:pageopacity="0"
     inkscape:pageshadow="2"
     inkscape:window-width="2256"
     inkscape:window-height="1410"
     id="namedview835"
     showgrid="false"
     inkscape:zoom="2.7507484"
     inkscape:cx="179.17311"
     inkscape:cy="110.62102"
     inkscape:window-x="-11"
     inkscape:window-y="-11"
     inkscape:window-maximized="1"
     inkscape:current-layer="g841" />
  <g
     inkscape:groupmode="layer"
     inkscape:label="Image"
     id="g841">
    <path
       style="fill:#ffffff;stroke-width:0.32"
       d="m 3.7529252,266.28722 c -1.132703,-0.40668 -3.793678,-2.74262 -3.982853,-3.49635 -0.151063,-0.60188 0.05891,-1.22622 0.801654,-2.38369 0.553479,-0.86252 1.13924,-1.48608 1.301691,-1.38568 0.162451,0.1004 0.274744,0.0639 0.249542,-0.0812 -0.11272,-0.64889 0.06679,-0.75268 0.519226,-0.30024 0.269094,0.26909 0.701094,0.40797 0.96,0.30862 0.258907,-0.0994 0.47074,-0.0212 0.47074,0.17359 0,0.19483 -0.139481,0.35424 -0.309957,0.35424 -0.170476,0 -0.22707,0.216 -0.125763,0.48 0.233141,0.60755 -0.16213,0.61734 -0.821809,0.0203 -0.443258,-0.40114 -0.601692,-0.38893 -1.244438,0.0959 -0.75361603,0.56845 -1.310387,2.29379 -1.084,3.35914 0.101055,0.47555 0.651703,0.079 2.736241,-1.97064 23.3892108,-22.99737 26.7122208,-26.18594 27.1554828,-26.0568 0.165998,0.0484 0.224202,-0.0377 0.129342,-0.19114 -0.178644,-0.28903 1.899086,-2.29677 2.376859,-2.29677 0.14865,0 0.373018,-0.16625 0.498599,-0.36944 0.151084,-0.24446 0.08662,-0.28186 -0.190557,-0.11056 -0.277175,0.1713 -0.341642,0.1339 -0.190557,-0.11056 0.125581,-0.20319 0.403827,-0.36944 0.618326,-0.36944 0.447456,0 1.678026,-1.31972 1.566516,-1.68 -0.04086,-0.132 0.0483,-0.204 0.198131,-0.16 0.282012,0.0828 1.583305,-1.11794 12.366929,-11.41148 3.519645,-3.35969 7.551645,-7.20189 8.96,-8.53822 2.347274,-2.22723 33.890202,-31.07427 39.077558,-35.7377 1.228106,-1.10406 2.686576,-2.32806 3.241046,-2.72 1.166976,-0.82489 1.782876,-1.97081 1.514206,-2.81729 -0.10319,-0.32512 -0.0364,-0.87362 0.14834,-1.21888 0.5213,-0.97406 4.21217,-4.36172 4.69855,-4.31256 0.23873,0.0241 0.36514,-0.0676 0.28092,-0.20392 -0.0842,-0.13629 0.75276,-1.04313 1.85997,-2.01521 l 2.01311,-1.76741 0.0717,1.17133 c 0.10257,1.67483 0.93527,4.40569 1.52243,4.99285 2.0544,2.05439 5.24091,3.3968 8.17732,3.44493 1.99882,0.0328 2.19633,0.0959 2.20519,0.70477 0.01,0.65338 0.0181,0.65437 0.37273,0.043 0.36025,-0.62108 0.36501,-0.62108 0.62945,0 0.17553,0.41225 0.20046,0.25725 0.0731,-0.45423 -0.1355,-0.7567 -0.0858,-1.01353 0.16604,-0.85789 0.19769,0.12219 0.29459,0.32708 0.21533,0.45532 -0.0793,0.12824 -0.0118,0.44229 0.14988,0.69789 0.23607,0.37316 0.29592,0.33863 0.30379,-0.17528 0.008,-0.53087 0.0627,-0.55815 0.32,-0.16 0.25815,0.39945 0.31526,0.3726 0.34036,-0.16 0.0166,-0.352 0.10309,-0.45911 0.19223,-0.23801 0.27499,0.6821 0.74539,0.0945 0.78526,-0.98088 l 0.0379,-1.02111 0.24744,0.96 c 0.23441,0.90944 0.25961,0.92227 0.47852,0.2436 0.12709,-0.39403 0.35871,-0.63753 0.5147,-0.54112 0.26106,0.16135 0.32898,-0.0749 0.42915,-1.49304 0.0198,-0.28081 0.25937,-0.85681 0.5323,-1.28 0.58851,-0.91255 1.30187,-2.89641 1.11035,-3.08793 -0.0741,-0.0741 -0.41522,0.48926 -0.75806,1.25189 -1.38995,3.09183 -5.04814,5.46712 -8.49779,5.51768 -1.56817,0.023 -2.36577,-0.16297 -3.89233,-0.90748 -1.55005,-0.75596 -1.78107,-0.96067 -1.19895,-1.06239 0.41049,-0.0717 1.08929,0.16365 1.57601,0.5465 0.71024,0.55867 1.17096,0.648 2.72196,0.52771 1.9505,-0.15127 4.54177,-0.96115 5.40617,-1.68965 0.27786,-0.23418 0.66803,-0.42577 0.86705,-0.42577 0.49884,0 1.89081,-1.54939 2.44926,-2.72623 0.25395,-0.53515 0.49734,-1.66107 0.54087,-2.50205 0.10499,-2.02825 0.58897,-2.26704 0.62952,-0.31061 0.0246,1.1894 0.0844,1.35721 0.26319,0.73889 0.12721,-0.44 0.12683,-1.232 -9.6e-4,-1.76 -0.12767,-0.528 -0.31844,-1.34641 -0.42393,-1.81868 -0.10549,-0.47226 -0.44346,-0.93989 -0.75106,-1.03917 -0.30759,-0.0993 -0.78406,-0.57688 -1.05882,-1.06133 -0.72447,-1.27736 -3.75184,-3.24786 -5.42997,-3.53434 -0.78675,-0.13431 -1.35846,-0.38421 -1.27046,-0.55534 0.088,-0.17113 0.25419,-0.27975 0.36931,-0.24137 0.11512,0.0384 0.40312,-0.16928 0.64,-0.46143 0.36421,-0.44921 0.36132,-0.48939 -0.0188,-0.26033 -0.30737,0.18525 -0.37624,0.15244 -0.21788,-0.10379 0.12735,-0.20606 0.35675,-0.29729 0.50977,-0.20271 0.15302,0.0946 0.42669,-0.0831 0.60816,-0.39478 0.18146,-0.31171 0.33432,-0.4411 0.33967,-0.28755 0.005,0.15355 0.22414,0.10123 0.4862,-0.11626 0.26206,-0.21749 0.38382,-0.54537 0.27056,-0.72863 -0.11325,-0.18325 -0.0605,-0.2433 0.11726,-0.13344 0.38216,0.23619 3.05112,-1.95995 2.82552,-2.32497 -0.17782,-0.28773 0.9231,-1.3763 1.15619,-1.14322 0.0847,0.0847 0.64905,-0.28481 1.25403,-0.82122 0.60498,-0.5364 0.88397,-0.87033 0.61997,-0.74206 -0.282,0.13702 -0.37,0.11306 -0.21334,-0.0581 0.14667,-0.16022 0.43467,-0.29785 0.64,-0.30585 0.20534,-0.008 0.34305,-0.17085 0.30604,-0.3619 -0.037,-0.19104 0.25098,-0.6165 0.64,-0.94545 l 0.70742,-0.5981 -0.6096,0.72 c -0.33528,0.396 -0.47386,0.72 -0.30797,0.72 0.41163,0 3.37492,-3.03599 3.16661,-3.2443 -0.0916,-0.0916 0.19291,-0.50418 0.63222,-0.91689 0.86348,-0.8112 1.12373,-0.68953 0.29588,0.13833 -0.27657,0.27657 -0.37916,0.50286 -0.22797,0.50286 0.15118,0 0.98947,-0.75499 1.86285,-1.67774 1.11622,-1.17931 1.21933,-1.34568 0.34708,-0.56 -0.68249,0.61475 -1.18649,0.96824 -1.12,0.78553 0.20795,-0.57144 3.16357,-3.13179 3.37324,-2.92211 0.10959,0.10959 -0.0374,0.29005 -0.32654,0.40102 -0.28919,0.11097 -0.5258,0.35268 -0.5258,0.53713 0,0.18445 0.28228,0.0799 0.62729,-0.23234 0.34502,-0.31223 0.59702,-0.66134 0.56,-0.7758 -0.0916,-0.28322 1.09949,-1.76107 1.6927,-2.10024 0.264,-0.15094 0.048,0.21583 -0.48,0.81505 l -0.95999,1.0895 1.02862,-0.92897 c 0.56574,-0.51094 0.96428,-1.03306 0.88566,-1.16029 -0.19536,-0.31609 4.25105,-4.33277 4.67459,-4.22282 0.18629,0.0484 0.25939,-0.0404 0.16246,-0.19723 -0.23876,-0.38632 0.91199,-1.39433 1.24594,-1.09139 0.14593,0.13238 0.15817,0.0549 0.0272,-0.17215 -0.23082,-0.40018 1.2997,-1.91243 1.77863,-1.75739 0.11853,0.0384 0.40932,-0.17762 0.6462,-0.48 0.39567,-0.50507 0.37866,-0.51223 -0.20931,-0.088 -0.352,0.25395 0.28793,-0.49811 1.42208,-1.67125 1.13415,-1.17313 2.14192,-2.05314 2.2395,-1.95556 0.0976,0.0976 -0.0999,0.38015 -0.43872,0.62794 -0.33888,0.24779 -0.54597,0.5207 -0.46021,0.60646 0.0858,0.0858 0.86725,-0.59501 1.73664,-1.51283 0.86939,-0.91782 1.11271,-1.24756 0.54071,-0.73276 -1.42094,1.27886 -1.32297,0.5729 0.11114,-0.80095 4.16798,-3.99285 8.96736,-14.05843 12.91779,-27.0921 1.02757,-3.390249 2.14087,-6.633571 2.474,-7.207386 0.65678,-1.131292 2.82995,-2.473334 5.37707,-3.320601 5.21077,-1.733306 10.6839,-5.410922 13.279,-8.922698 2.65522,-3.593146 3.68447,-6.831985 3.40664,-10.720001 -0.31148,-4.358883 -2.07001,-8.113398 -5.42944,-11.592064 -1.43217,-1.483008 -4.3762,-5.703172 -4.3762,-6.273143 0,-0.973072 2.28476,-2.573897 6.88,-4.820499 5.0314,-2.459837 5.46411,-2.646007 9.6,-4.130339 8.69378,-3.120107 17.63999,-5.248893 21.63819,-5.148894 l 1.40181,0.03506 -1.40419,0.275797 c -0.7723,0.151687 -1.4923,0.371949 -1.6,0.489469 -0.3253,0.35498 2.6197,-0.196291 3.07726,-0.576027 0.68497,-0.568476 7.30413,0.07056 12.24693,1.182365 0.44,0.09897 1.376,0.308313 2.08,0.465204 4.18167,0.931915 9.87268,2.825256 12.6824,4.219303 2.72225,1.35065 5.56192,2.023213 7.37917,1.747718 3.15334,-0.478048 5.83393,-4.286242 8.23808,-11.70345 1.39537,-4.304966 2.09722,-7.918114 3.23436,-16.6505017 0.42847,-3.2903244 1.24745,-7.3425938 1.61683,-8.00000073 0.19648,-0.349683 0.27234,-0.365197 0.27943,-0.05714 0.008,0.333241 0.10763,0.324959 0.47167,-0.03908 0.521,-0.52101 1.89411,-0.375097 2.41873,0.257025 0.63232,0.76190493 0.98772,5.75934733 0.65524,9.21376973 -0.76849,7.9844517 -1.14841,10.7566887 -2.24554,16.3854277 -0.79911,4.099711 -4.32302,14.193276 -8.09968,23.2 -2.65645,6.335197 -7.42646,13.982576 -12.59486,20.192356 -1.29571,1.556774 -2.35583,2.888358 -2.35583,2.959072 0,0.07071 0.43117,0.214806 0.95816,0.320205 0.55869,0.111737 1.72603,0.936365 2.8,1.977965 l 1.84184,1.786332 2.24,-0.717257 c 1.232,-0.394493 3.10982,-0.777431 4.17294,-0.850976 1.91588,-0.132535 1.94327,-0.122291 3.10192,1.160201 2.94586,3.260711 1.76814,5.246708 -5.51486,9.299732 -4.03977,2.248154 -8.42273,6.385402 -9.56089,9.024893 -0.91578,2.12376 -1.44043,4.560543 -1.19362,5.543883 0.12122,0.48298 0.61057,1.24029 1.08745,1.68294 0.47689,0.44263 4.75506,2.72107 9.50706,5.0632 9.63757,4.7501 13.72124,7.27384 16.11418,9.95865 1.9183,2.15228 3.71342,5.39731 4.92582,8.90434 0.85475,2.4725 0.88,2.74473 0.88,9.48903 v 6.94351 l -1.12755,3.23936 c -1.45367,4.17628 -3.28944,7.21291 -6.02495,9.9661 -4.43779,4.46649 -9.79308,7.42594 -16.3675,9.04502 -6.22648,1.5334 -14.994,1.37984 -20,-0.3503 -4.18838,-1.44755 -7.94129,-3.6161 -12.8,-7.39623 -3.43882,-2.67545 -5.5983,-4.88058 -9.42879,-9.62813 -4.97439,-6.1653 -6.3032,-7.39692 -9.77219,-9.05745 -1.67146,-0.8001 -3.81673,-1.63218 -4.76727,-1.84907 -2.67921,-0.61134 -7.65111,-0.24229 -10.75175,0.79808 -2.25881,0.7579 -9.48563,4.1025 -11.68,5.40554 -0.7445,0.4421 -5.62427,3.18581 -10.08,5.6676 -1.056,0.58819 -2.64,1.572 -3.52,2.18625 -1.78643,1.24697 -17.72074,13.21048 -20.96,15.73682 -1.144,0.89222 -2.79999,2.17622 -3.67999,2.85333 -0.88,0.67711 -2.40641,1.85524 -3.39201,2.61806 -0.98561,0.76283 -4.51234,3.47496 -7.83718,6.02696 -3.32484,2.552 -6.55044,5.02791 -7.16799,5.50202 -3.53646,2.71505 -4.08833,3.06179 -4.48397,2.81727 -0.27218,-0.16822 -1.14906,0.30849 -2.5278,1.3742 -2.54785,1.96938 -10.03056,7.85814 -13.440027,10.57705 -7.586191,6.04966 -14.680866,11.62806 -17.63557,13.86648 -5.637162,4.2706 -19.675607,14.79226 -25.59545,19.18351 -9.904617,7.3471 -11.551001,8.55097 -19.199998,14.03947 -4.136,2.96777 -8.816,6.35649 -10.4,7.53049 -1.584,1.17401 -4.006546,2.91193 -5.383436,3.86203 -1.37689,0.95012 -2.899726,2.01548 -3.38408,2.36748 -0.484354,0.352 -2.741807,1.88635 -5.016563,3.40967 -5.4787018,3.66888 -7.3494738,4.59832 -8.4559208,4.20107 z m 3.08031,-2.8771 c -0.198465,-0.19846 -1.776773,0.93718 -1.790254,1.28815 -0.0055,0.14399 0.430235,-0.0517 0.968368,-0.43491 0.538133,-0.38318 0.907982,-0.76714 0.821886,-0.85324 z m 4.1500938,-3.05364 0.609597,-0.72 -0.8,0.63659 c -0.44,0.35012 -0.8600004,0.67412 -0.9333344,0.72 -0.07333,0.0459 0.01235,0.0834 0.1904044,0.0834 0.178056,0 0.598056,-0.324 0.933333,-0.72 z m 9.089596,-7.17378 c 0,-0.088 -0.576,0.2962 -1.28,0.85378 -0.704,0.55758 -1.28,1.08578 -1.28,1.17378 0,0.088 0.576,-0.2962 1.28,-0.85378 0.704,-0.55758 1.28,-1.08578 1.28,-1.17378 z m 2.99977,-2.32844 c -0.07565,-0.0782 -0.457548,0.19452 -0.848659,0.60609 l -0.711111,0.74832 0.848659,-0.60609 c 0.466763,-0.33336 0.786763,-0.6701 0.711111,-0.74832 z m 1.980361,-1.35234 0.939869,-1.01456 -1.030323,0.70946 c -1.103004,0.75951 -1.581988,1.31966 -1.128431,1.31966 0.153458,0 0.701957,-0.45655 1.218885,-1.01456 z m 2.379869,-1.70544 c 0.413358,-0.44 0.607561,-0.8 0.431561,-0.8 -0.176,0 -0.658203,0.36 -1.071561,0.8 -0.413358,0.44 -0.607561,0.8 -0.431561,0.8 0.176,0 0.658203,-0.36 1.071561,-0.8 z m 2.706934,-2.14594 c 0.183186,-0.12427 0.837066,-0.67273 1.453066,-1.2188 0.795878,-0.70553 0.544669,-0.59384 -0.868046,0.38594 -1.093424,0.75834 -2.071622,1.58673 -2.17377,1.84086 -0.121018,0.30107 0.06537,0.24532 0.534979,-0.16 0.396388,-0.34213 0.870585,-0.72373 1.053771,-0.848 z m 10.893066,-8.2653 c 4.047998,-3.04927 9.644987,-7.28217 12.437748,-9.40644 2.792765,-2.12428 5.483015,-4.15032 5.978336,-4.50232 1.064247,-0.75631 10.95026,-8.36681 13.285764,-10.22773 0.892019,-0.71075 3.834771,-3.02027 6.539453,-5.13227 11.839737,-9.24528 24.610294,-19.70263 24.906564,-20.39509 0.24855,-0.58095 4.28389,-3.75833 4.55799,-3.58893 0.34221,0.2115 0.51669,0.0452 2.69772,-2.57082 2.01747,-2.41988 2.28004,-2.64488 5.69499,-4.88021 l 2.81858,-1.84495 -1.12805,-0.0987 c -0.64682,-0.0566 -2.12225,0.26039 -3.45858,0.74303 -2.76634,0.99912 -3.4622,0.91558 -5.75407,-0.69085 -4.24558,-2.97585 -6.81322,-7.49242 -5.48045,-9.64034 0.43831,-0.70639 0.28607,-0.63156 -0.79711,0.39179 -0.73639,0.69572 -1.33889,1.40242 -1.33889,1.57044 0,0.40822 2.09895,3.15325 5.51719,7.21543 2.76957,3.29132 3.25893,4.26568 2.32281,4.62491 -0.264,0.1013 -0.48,0.37679 -0.48,0.61218 0,0.69895 -5.97027,6.71184 -9.759994,9.82968 -1.936004,1.59276 -3.817005,3.14595 -4.18001,3.45152 -1.661539,1.39868 -6.052467,5.00402 -9.259993,7.60327 -1.936,1.56885 -3.736,3.02985 -4,3.24666 -3.277593,2.69177 -12.750928,10.3205 -15.892767,12.79821 -3.589149,2.83045 -7.960052,6.3569 -12.747233,10.28448 -8.188291,6.71798 -9.351481,7.64955 -14.795125,11.84901 -3.033321,2.34004 -5.616963,4.42441 -5.741427,4.63194 -0.168905,0.28163 -0.109273,0.28766 0.235127,0.0238 0.253785,-0.19446 3.773427,-2.84842 7.821427,-5.89768 z m 64.648455,-50.48696 c -0.0985,-0.0985 -0.35673,-2.1e-4 -0.5738,0.21849 -0.31368,0.31604 -0.27693,0.35279 0.17914,0.17913 0.31559,-0.12017 0.49319,-0.2991 0.39466,-0.39762 z m 2.23154,-1.6618 c 0.50585,-0.528 0.82734,-0.96 0.71441,-0.96 -0.23191,0 -1.83441,1.5502 -1.83441,1.77454 0,0.28678 0.21389,0.13122 1.12,-0.81454 z m 5.84573,-12.8 c -0.21982,-0.352 -0.50905,-0.64 -0.64271,-0.64 -0.13366,0 -0.24302,-0.15429 -0.24302,-0.34286 0,-0.18857 -0.216,-0.55886 -0.48,-0.82286 -0.64857,-0.64857 -0.6084,-0.12298 0.0653,0.85451 0.47016,0.68217 1.35692,1.54898 1.6174,1.58103 0.0455,0.006 -0.0971,-0.27782 -0.31698,-0.62982 z m 23.40093,-11.84505 c 4.91069,-4.0077 13.4579,-11.53304 14.82212,-13.05005 0.65384,-0.72706 1.55347,-2.04158 1.99918,-2.92116 1.16229,-2.29367 3.75727,-9.02518 3.55655,-9.2259 -0.0932,-0.0932 -0.25983,0.10316 -0.37029,0.43635 -0.11046,0.33319 -0.46487,1.18181 -0.78757,1.88581 -0.32271,0.704 -0.82238,1.856 -1.11038,2.56 -1.5546,3.80014 -3.60558,6.98305 -5.46428,8.48 -1.46157,1.1771 -1.74465,1.39692 -4.12101,3.2 -0.81186,0.616 -2.0408,1.552 -2.73099,2.08 -0.69018,0.528 -1.87253,1.42074 -2.62744,1.98386 -7.33598,5.4723 -9.59777,7.66107 -10.0196,9.69614 l -0.23216,1.12 1.8796,-1.76505 c 1.03378,-0.97077 3.37661,-2.98677 5.20627,-4.48 z m 115.15146,-2.73111 c 0.39497,-0.0853 0.68297,-0.31456 0.64,-0.50947 -0.043,-0.19491 0.10187,-0.42037 0.32187,-0.50104 0.22,-0.0807 0.4,0.0178 0.4,0.21888 0,0.20652 0.17015,0.2604 0.39108,0.12386 0.2151,-0.13294 0.8991,-0.20509 1.52,-0.16033 0.80243,0.0579 1.34914,-0.12385 1.89037,-0.62827 0.62694,-0.58428 0.8672,-0.64361 1.36,-0.33585 0.36862,0.2302 0.59855,0.24983 0.59855,0.0511 0,-0.17749 0.21757,-0.32271 0.48349,-0.32271 1.24595,0 3.96932,-1.63286 6.44161,-3.86222 0.37681,-0.33978 0.82177,-0.61778 0.9888,-0.61778 0.70679,0 4.33717,-4.10159 5.29625,-5.98366 0.56642,-1.11153 1.27476,-2.48792 1.57408,-3.05865 1.11466,-2.12532 1.60389,-4.52028 1.65007,-8.07769 0.0431,-3.31945 -0.42436,-6.24723 -1.12148,-7.02401 -0.15005,-0.1672 -0.27282,-0.50543 -0.27282,-0.75163 0,-1.27536 -2.37068,-5.18437 -3.14414,-5.18437 -0.31687,0 -0.98856,-0.43049 -1.49266,-0.95666 -1.07764,-1.12482 -1.4057,-1.05197 -0.62542,0.13889 0.3019,0.46076 0.45741,0.92925 0.34557,1.04109 -0.11184,0.11185 -0.24517,0.14335 -0.29629,0.07 -2.01525,-2.891 -4.97624,-5.36062 -8.91159,-7.43274 -2.41192,-1.26997 -3.83514,-1.83773 -7.74718,-3.09052 -3.77592,-1.20919 -11.72033,-1.47884 -14.92829,-0.50668 -0.792,0.24001 -2.10317,0.59076 -2.9137,0.77944 -1.53308,0.35689 -5.91005,2.37141 -8.1263,3.74018 -0.704,0.4348 -1.496,0.88489 -1.76,1.0002 -0.264,0.11532 -0.94177,0.55661 -1.50617,0.98066 -0.56439,0.42404 -1.16644,0.6843 -1.33789,0.57834 -0.17144,-0.10596 -0.41592,-0.0241 -0.54327,0.18201 -0.15437,0.24977 -0.0919,0.28836 0.18733,0.11577 0.3,-0.1854 0.34563,-0.13132 0.16077,0.19056 -0.51461,0.89607 -1.21224,1.55068 -1.47772,1.3866 -0.51431,-0.31785 -2.97043,3.98918 -3.80124,6.66579 -0.20536,0.66162 -0.49069,1.13045 -0.63407,1.04184 -0.46686,-0.28854 -0.64774,0.79287 -0.64774,3.87265 0,2.03288 0.14618,3.25754 0.44569,3.73382 0.24513,0.38981 0.52722,1.60367 0.62687,2.69747 0.21251,2.33276 0.85587,3.85474 3.01443,7.13128 3.65041,5.54103 8.52629,9.22858 15.11301,11.42974 3.70523,1.23821 6.2611,1.70942 10.21635,1.88351 1.65899,0.073 3.05068,0.16741 3.09264,0.20976 0.11926,0.12034 3.72812,-0.0862 4.52914,-0.25917 z m 22.16187,-28.30385 c 0,-0.176 0.144,-0.32 0.32,-0.32 0.176,0 0.32,0.144 0.32,0.32 0,0.176 -0.144,0.32 -0.32,0.32 -0.176,0 -0.32,-0.144 -0.32,-0.32 z m -2.4,-4.8 c -0.10877,-0.176 -0.0538,-0.32 0.12223,-0.32 0.176,0 0.409,0.144 0.51777,0.32 0.10877,0.176 0.0538,0.32 -0.12223,0.32 -0.176,0 -0.409,-0.144 -0.51777,-0.32 z m -1.61316,-2.26129 c -0.11601,-0.1877 -0.13409,-0.41812 -0.0402,-0.51204 0.22922,-0.22922 0.85333,0.17467 0.85333,0.55222 0,0.40895 -0.55245,0.38166 -0.81316,-0.0402 z m -37.26684,35.06951 c 0,-0.0835 -0.432,-0.37517 -0.96,-0.64821 -1.20348,-0.62235 -1.2763,-0.35204 -0.08,0.29697 1.00562,0.54555 1.04,0.55716 1.04,0.35124 z m -2.38112,-1.09767 c -0.0984,-0.15921 -1.00689,-0.7529 -2.01889,-1.31933 -1.74977,-0.97936 -4.83696,-3.32593 -6.99274,-5.31516 -1.90219,-1.75524 -4.6899,-5.73688 -6.13046,-8.75605 -0.79778,-1.672 -1.78315,-3.49017 -2.1897,-4.04037 -0.6945,-0.93988 -5.44407,-4.07211 -8.28709,-5.46514 -0.704,-0.34495 -2.40895,-0.95481 -3.78879,-1.35525 -2.09839,-0.60897 -3.07807,-0.70859 -5.9887,-0.60896 -2.30076,0.0787 -3.61927,0.26072 -3.8912,0.53705 -0.33773,0.34319 -0.23957,0.37097 0.54869,0.15531 0.528,-0.14446 2.30295,-0.24118 3.94432,-0.21496 4.29798,0.0687 7.01313,0.99579 9.17038,3.13127 0.90066,0.89158 2.2063,2.13111 2.90143,2.75453 1.88117,1.6871 4.2408,4.50015 6.76603,8.06616 1.53053,2.16134 3.60797,4.51689 3.80757,4.3173 0.077,-0.077 -0.19768,-0.48579 -0.61036,-0.90846 -0.41268,-0.42267 -0.85027,-1.04115 -0.97242,-1.3744 -0.12216,-0.33325 0.88497,0.5718 2.23804,2.01123 2.69583,2.86786 5.94386,5.44691 9.30301,7.38692 2.41157,1.39276 2.44372,1.40741 2.19088,0.99831 z m -103.74845,-1.48435 c -0.10422,-0.27159 -0.25812,-0.42517 -0.342,-0.34129 -0.0839,0.0839 -0.0576,0.3061 0.0584,0.49381 0.31553,0.51054 0.49996,0.41136 0.28358,-0.15252 z m -0.70961,-9.98619 c 0.39804,-0.50754 0.38672,-0.51886 -0.12081,-0.12082 -0.53304,0.41803 -0.70256,0.68082 -0.43919,0.68082 0.0665,0 0.31845,-0.252 0.56,-0.56 z m 51.52939,-11.2581 c 0.3649,-0.33995 1.25888,-0.71617 1.98662,-0.83603 2.58291,-0.42543 2.36704,-0.82732 -0.33483,-0.62336 -2.45397,0.18525 -2.64105,0.15456 -2.98592,-0.48985 -0.63128,-1.17955 -0.73127,-0.42332 -0.14649,1.10789 0.30655,0.8027 0.61582,1.45945 0.68727,1.45945 0.0714,0 0.42846,-0.27815 0.79335,-0.6181 z m -12.13035,-2.44686 c 1.62808,-0.27772 3.96814,-0.84192 5.20014,-1.25378 3.12441,-1.04449 3.31943,-1.07222 11.2,-1.59288 14.03168,-0.92705 17.41498,-2.01477 30.72,-9.8764 6.24097,-3.68765 14.07358,-9.41577 18.33602,-13.40944 3.84126,-3.59906 5.33891,-5.98286 9.60145,-15.282555 0.52436,-1.144 1.45284,-2.85415 2.06331,-3.800333 1.04456,-1.61902 1.08325,-1.773801 0.65701,-2.628224 -0.34148,-0.684524 -0.36826,-1.087923 -0.10882,-1.639667 0.27255,-0.579616 0.26586,-0.624768 -0.0322,-0.217146 -0.34102,0.466407 -0.44658,0.453501 -1.12653,-0.137705 -0.4404,-0.382919 -0.74188,-0.991952 -0.72997,-1.474634 l 0.0203,-0.822291 0.35522,0.8 0.35522,0.8 0.13159,-0.756909 c 0.0724,-0.416297 -0.0246,-0.913097 -0.2155,-1.104 -0.19091,-0.190899 -0.3471,-0.606291 -0.3471,-0.923091 0,-0.812602 -0.24927,-0.749091 -3.24928,0.827866 -3.11893,1.639465 -7.25761,3.391552 -11.31072,4.788323 -2.81135,0.968842 -3.0211,0.992682 -8.8,1.000154 -5.62729,0.0073 -12.58709,-0.311076 -13.49782,-0.617415 -0.72318,-0.243248 -3.77809,-0.514899 -7.95817,-0.707657 -3.44759,-0.158983 -4.39871,-0.08857 -6.72,0.497494 -3.80281,0.960109 -6.92218,2.522963 -8.80495,4.411431 -2.29893,2.305878 -7.19096,9.785405 -9.567,14.627189 -3.61784,7.37227 -7.6509,18.94304 -9.32612,26.75651 -0.24527,1.14393 -0.44594,2.11593 -0.44594,2.16 0,0.15435 0.6636,0.076 3.59986,-0.42484 z m 18.96014,0.18495 c 0.422,-0.18133 0.4765,-0.281 0.16,-0.2926 -0.264,-0.01 -0.696,0.12199 -0.96,0.2926 -0.58495,0.37803 -0.0797,0.37803 0.8,0 z m 4.64,-0.96 0.8,-0.2562 -0.8,-0.009 c -0.44,-0.005 -1.088,0.11435 -1.44,0.26561 l -0.64,0.27502 0.64,-0.009 c 0.352,-0.005 1,-0.1247 1.44,-0.26561 z m -10.72,-0.97494 c 0.44605,-0.20209 0.2521,-0.23089 -0.64,-0.0951 -0.704,0.1072 -1.34,0.2478 -1.41333,0.31246 -0.27494,0.24239 1.43903,0.0609 2.05333,-0.2174 z m 40.96793,-10.06506 c 1.73116,-2.40918 5.01535,-5.79538 5.89002,-6.073 0.36413,-0.11557 0.66205,-0.34442 0.66205,-0.50856 0,-0.16414 0.139,-0.29844 0.30889,-0.29844 0.16989,0 0.99008,-0.432 1.82265,-0.96 0.83257,-0.528 1.80957,-0.95779 2.17111,-0.9551 0.54166,0.004 0.57287,0.0595 0.17735,0.3151 -0.264,0.17062 -0.336,0.30783 -0.16,0.30493 0.176,-0.003 0.59952,-0.2167 0.94116,-0.4751 0.44539,-0.33688 0.49067,-0.47121 0.16,-0.47473 -0.38893,-0.004 -0.38598,-0.0535 0.0188,-0.3151 0.70818,-0.45765 0.33937,-0.38937 -1.44452,0.26747 -3.67194,1.35202 -8.66277,5.41748 -11.26037,9.17253 -0.95099,1.37474 -2.65632,4.80017 -2.64833,5.31959 0.004,0.24223 0.45108,-0.42359 0.99413,-1.47959 0.54306,-1.056 1.60821,-2.784 2.36702,-3.84 z m -14.07946,4.06181 c -0.0985,-0.0985 -0.35673,-2.1e-4 -0.5738,0.21849 -0.31368,0.31603 -0.27693,0.35279 0.17913,0.17913 0.31559,-0.12017 0.49319,-0.2991 0.39467,-0.39762 z m 1.58927,-0.69814 c 0.11211,-0.1814 -0.0164,-0.23504 -0.30112,-0.12576 -0.55437,0.21273 -0.6558,0.44209 -0.1955,0.44209 0.16561,0 0.38909,-0.14235 0.49662,-0.31633 z m 2.86342,-1.45384 c 0.34164,-0.2584 0.48564,-0.46525 0.32,-0.45965 -0.16563,0.006 -0.58068,0.2216 -0.92232,0.48 -0.34164,0.2584 -0.48564,0.46525 -0.32,0.45965 0.16564,-0.006 0.58069,-0.2216 0.92232,-0.48 z m 3.24042,-2.10474 c 0.11947,-0.19331 -0.16051,-0.10397 -0.62218,0.19852 -0.46167,0.3025 -0.8394,0.61051 -0.8394,0.68446 0,0.23148 1.23327,-0.51357 1.46158,-0.88298 z m 56.8001,-0.53022 c -3.60203,-4.48225 -10.3651,-8.57671 -16.73442,-10.13126 -4.41969,-1.07871 -8.01512,-1.42355 -7.75294,-0.74361 0.0964,0.25 0.96267,0.43799 2.30996,0.5013 1.18565,0.0557 2.56921,0.30541 3.07459,0.55487 0.50538,0.24946 1.06148,0.36542 1.23578,0.2577 0.17429,-0.10772 0.4296,-0.0135 0.56734,0.20935 0.13774,0.22287 0.68349,0.42132 1.21277,0.441 0.52928,0.0197 0.89582,0.14405 0.81453,0.27638 -0.0813,0.13233 0.25686,0.38815 0.75146,0.56849 1.2768,0.46554 2.94394,1.30794 4.33052,2.18819 0.65608,0.41651 1.40783,0.67479 1.67055,0.57398 0.26273,-0.10082 0.57655,-0.0233 0.69737,0.17216 0.13304,0.21525 0.074,0.2654 -0.14975,0.12714 -0.20319,-0.12558 -0.36944,-0.0758 -0.36944,0.11056 0,0.18639 0.12374,0.33888 0.27497,0.33888 0.15123,0 0.90723,0.50261 1.68,1.1169 0.77276,0.61429 1.65703,1.11829 1.96503,1.12 0.308,0.002 0.56,0.19216 0.56,0.42324 0,0.7454 1.8625,2.23799 2.93982,2.35593 0.57082,0.0625 1.17969,0.25544 1.35302,0.42878 0.70194,0.70194 0.48002,0.24386 -0.43116,-0.88998 z m -48.7348,-0.57465 c -0.10726,-0.10727 -0.36751,0.1413 -0.57833,0.55238 -0.36644,0.71451 -0.35786,0.72309 0.19502,0.19502 0.31809,-0.30381 0.49058,-0.64014 0.38331,-0.7474 z m -5.64606,-0.38022 c 0.39804,-0.50753 0.38672,-0.51885 -0.12082,-0.12081 -0.308,0.24155 -0.56,0.49355 -0.56,0.56 0,0.26337 0.26278,0.0939 0.68082,-0.43919 z m -56.07908,-4.8 c 0.39701,-0.572 0.65755,-1.04 0.57897,-1.04 -0.20995,0 -2.78071,3.37822 -2.78071,3.65412 0,0.26919 1.13961,-1.08387 2.20174,-2.61412 z m 66.3354,-1.13526 c 0.23258,-0.22839 1.25687,-0.96638 2.27622,-1.63998 1.01934,-0.67359 1.7851,-1.29296 1.70168,-1.37638 -0.16383,-0.16384 -4.2316,2.65302 -4.53119,3.13777 -0.26629,0.43086 0.0649,0.35818 0.55329,-0.12141 z m 3.94286,-0.22474 c 0.10878,-0.176 0.0538,-0.32 -0.12223,-0.32 -0.176,0 -0.40899,0.144 -0.51777,0.32 -0.10877,0.176 -0.0538,0.32 0.12223,0.32 0.176,0 0.409,-0.144 0.51777,-0.32 z m 4.16,-2.24 c -0.10877,-0.176 -0.40527,-0.32 -0.65888,-0.32 -0.25362,0 -0.46112,0.144 -0.46112,0.32 0,0.176 0.2965,0.32 0.65889,0.32 0.36239,0 0.56989,-0.144 0.46111,-0.32 z m -2.88,-0.96 c 0.10878,-0.176 0.0538,-0.32 -0.12223,-0.32 -0.176,0 -0.40899,0.144 -0.51777,0.32 -0.10877,0.176 -0.0538,0.32 0.12223,0.32 0.176,0 0.409,-0.144 0.51777,-0.32 z m 2.4,-1.44821 c 0,-0.31823 -0.50975,-0.1133 -1.28,0.51459 l -0.8,0.65215 1.04,-0.50748 c 0.572,-0.27912 1.04,-0.57578 1.04,-0.65926 z m -68.3166,-2.53 c 0.45198,-1.2008 0.76466,-2.24039 0.69486,-2.3102 -0.0698,-0.0698 -0.45507,0.77654 -0.85615,1.88075 -1.07117,2.94901 -1.08173,2.98319 -0.86229,2.79019 0.11099,-0.0976 0.5716,-1.15994 1.02358,-2.36074 z m 71.72618,1.28583 c 1.42458,-0.60081 3.70471,-1.27966 5.06696,-1.50856 2.07907,-0.34935 2.33297,-0.45465 1.58108,-0.65574 -0.90862,-0.243 -3.03057,0.0928 -4.77762,0.75613 -1.69745,0.64447 -4.96,2.18812 -4.96,2.34679 0,0.3015 0.53328,0.13949 3.08958,-0.93862 z m -1.44876,-3.94763 c 0.39804,-0.50754 0.38672,-0.51885 -0.12082,-0.12082 -0.308,0.24157 -0.56,0.49357 -0.56,0.56001 0,0.26338 0.26278,0.0939 0.68082,-0.43919 z m -68.53062,-2.16 c 0,-0.17599 -0.13958,-0.10399 -0.3102,0.16 -0.17061,0.264 -0.31019,0.624 -0.31019,0.8 0,0.176 0.13958,0.104 0.31019,-0.16 0.17062,-0.264 0.3102,-0.624 0.3102,-0.8 z m 70.09934,0.14218 c 0.48627,-0.9086 0.15459,-0.76033 -0.48593,0.21722 -0.30249,0.46167 -0.39183,0.74165 -0.19852,0.62218 0.19331,-0.11947 0.50131,-0.4972 0.68445,-0.8394 z m -69.14088,-2.978914 c -0.0197,-0.632406 -0.92603,1.206791 -0.92479,1.876744 9.6e-4,0.4419 0.14588,0.30672 0.46866,-0.436744 0.25711,-0.592208 0.46237,-1.240208 0.45613,-1.44 z m 70.02954,1.228272 c -0.0985,-0.09852 -0.27746,0.07908 -0.39763,0.394666 -0.17365,0.456066 -0.1369,0.492816 0.17914,0.179136 0.21869,-0.217069 0.31701,-0.475277 0.21849,-0.573802 z m 1.19718,-2.10127 c 0.2815,-0.544355 0.455,-1.046547 0.38557,-1.115981 -0.0694,-0.06943 -0.36572,0.375946 -0.65842,0.989738 -0.65811,1.380064 -0.43008,1.485565 0.27285,0.126243 z m 1.22672,-2.706883 c 0.10928,-0.284775 0.0556,-0.413223 -0.12576,-0.301114 -0.17399,0.107526 -0.31634,0.331008 -0.31634,0.496621 0,0.460298 0.22937,0.358867 0.4421,-0.195507 z m 0.8379,-1.74338 c 0.18839,-0.352 0.27052,-0.64 0.18252,-0.64 -0.088,0 -0.31413,0.288 -0.50252,0.64 -0.18838,0.352 -0.27052,0.64 -0.18252,0.64 0.088,0 0.31414,-0.288 0.50252,-0.64 z m 1.44,-2.56 c 0.27304,-0.528 0.42444,-0.96 0.33644,-0.96 -0.088,0 -0.3834,0.432 -0.65644,0.96 -0.27304,0.528 -0.42443,0.96 -0.33643,0.96 0.088,0 0.38339,-0.432 0.65643,-0.96 z m 1.61189,-2.64 c 0.49332,-0.748 0.69245,-1.191072 0.44252,-0.984601 -0.48058,0.39702 -1.70584,2.344601 -1.47502,2.344601 0.0746,0 0.53919,-0.612 1.0325,-1.36 z m 5.74811,-6.144912 c 2.55407,-2.10832 2.76297,-2.328314 1.45524,-1.532534 -1.58229,0.962848 -4.97306,4.058397 -5.78199,5.278563 -0.5059,0.763088 -0.27786,0.614128 0.859,-0.561117 0.85126,-0.88 2.41175,-2.31321 3.46775,-3.184912 z m -76.87198,2.413821 c 1.19241,-0.543901 2.23815,-0.988909 2.32387,-0.988909 0.37909,0 4.96108,-2.333702 4.83316,-2.461626 -0.0785,-0.0785 -0.40875,-9.6e-4 -0.73388,0.172551 -0.32514,0.173401 -1.09517,0.528179 -1.71117,0.7884 -0.616,0.260221 -1.768,0.758569 -2.56,1.107443 -0.792,0.348874 -2.088,0.919165 -2.88,1.267315 -0.792,0.348151 -1.728,0.977908 -2.08,1.39946 l -0.64,0.766457 0.64,-0.531091 c 0.352,-0.292099 1.61561,-0.976099 2.80802,-1.52 z m 74.47198,-3.068909 0.75156,-0.8 H 247.614 c -0.6254,0 -0.70067,-0.118739 -0.52327,-0.825533 0.1846,-0.735533 0.13169,-0.801568 -0.48539,-0.605718 -0.48412,0.153654 -0.62351,0.10807 -0.46312,-0.15145 0.12933,-0.209261 -0.0959,-0.65343 -0.51613,-1.017904 l -0.74558,-0.64664 -0.7238,0.841466 c -0.76364,0.887789 -1.05381,1.903792 -0.3398,1.189779 0.55283,-0.552832 1.04919,-0.474157 0.57945,0.09184 -0.45617,0.549648 -0.17826,2.084157 0.37745,2.084157 0.20279,0 0.65646,-0.252 1.00816,-0.56 0.6112,-0.535245 0.62995,-0.533968 0.42416,0.02886 -0.22319,0.610464 -0.0365,1.171123 0.38989,1.171123 0.13493,0 0.58353,-0.36 0.99689,-0.8 z m -65.6,-1.302518 c 0,-0.088 -0.288,-0.0059 -0.64,0.182518 -0.352,0.188384 -0.64,0.414518 -0.64,0.502518 0,0.088 0.288,0.0059 0.64,-0.182518 0.352,-0.188384 0.64,-0.414518 0.64,-0.502518 z m 43.75044,-0.614564 c 10.32095,-1.825638 20.11093,-9.28881 23.60526,-17.994938 1.27559,-3.178125 1.71349,-7.949783 0.9972,-10.866087 -0.57637,-2.346627 -2.10278,-6.27408 -2.50625,-6.44856 -0.13565,-0.05867 -0.24665,-0.32321 -0.24665,-0.587869 0,-0.264662 -0.76326,-1.224662 -1.69614,-2.133334 -2.33232,-2.271802 -4.87761,-4.14992 -4.25178,-3.137312 0.14062,0.227532 0.041,0.288707 -0.27362,0.167984 -0.27213,-0.104426 -0.40136,-0.341028 -0.28718,-0.525776 0.11683,-0.189037 0.0551,-0.241674 -0.14113,-0.120384 -0.1918,0.11854 -1.02812,-0.215325 -1.85847,-0.741924 -1.63019,-1.033829 -3.58402,-1.789042 -3.87519,-1.497871 -0.0993,0.09935 -0.43405,0.04501 -0.74377,-0.120749 -0.71268,-0.381411 -2.87272,-0.659875 -2.87272,-0.370339 0,0.368202 3.83165,1.725919 4.33051,1.534486 0.26942,-0.103386 0.46949,0.0035 0.46949,0.250765 0,0.237011 0.324,0.656937 0.72,0.933174 l 0.72,0.502246 -0.73004,0.0168 c -0.40153,0.0092 -0.80718,-0.18424 -0.90147,-0.429939 -0.10625,-0.276889 -0.61947,-0.438061 -1.34995,-0.423942 -0.6482,0.01254 -2.25854,-0.110448 -3.57854,-0.273277 -1.32,-0.162832 -3.408,-0.220237 -4.64,-0.127568 -1.7166,0.12912 -2.32212,0.06162 -2.59145,-0.28889 -0.47544,-0.618725 -0.99488,-0.234528 -1.24935,0.924071 -0.1214,0.552726 -0.41634,0.956329 -0.69886,0.956329 -0.30303,0 -0.41881,-0.182432 -0.30462,-0.48 0.10131,-0.264 0.14316,-0.48 0.093,-0.48 -1.66485,0 -9.38213,2.32824 -11.80873,3.562596 -0.66,0.335724 -1.2,0.517853 -1.2,0.404726 0,-0.113126 -0.20199,-0.03804 -0.44888,0.166851 -0.34307,0.284724 -0.4796,0.280388 -0.57919,-0.0184 -0.0735,-0.220544 -0.36367,-0.301382 -0.66572,-0.185468 -0.29755,0.114176 -0.45758,0.408294 -0.36022,0.662012 0.11013,0.287005 -0.3123,0.796576 -1.13747,1.372116 -0.72197,0.503555 -1.70324,1.249865 -2.18059,1.658467 -0.47736,0.408601 -1.33453,1.108621 -1.90481,1.555603 -0.57029,0.446979 -0.95779,0.940669 -0.86111,1.097088 0.0967,0.156419 0.0233,0.284397 -0.16312,0.284397 -0.62022,0 -0.34974,-0.905014 0.46111,-1.542829 0.44,-0.346106 0.8,-0.806189 0.8,-1.022406 0,-0.302141 -0.1045,-0.306404 -0.45151,-0.0184 -0.31098,0.258092 -0.51649,0.269584 -0.66028,0.03692 -0.11482,-0.185792 0.0403,-0.433372 0.3447,-0.550188 0.30441,-0.116813 1.67906,-1.345565 3.05478,-2.73056 2.99073,-3.0109 2.5968,-2.865098 -1.71558,0.634969 -2.93289,2.380426 -5.9303,7.422688 -6.83811,11.503105 -0.34563,1.553516 -0.64028,2.259148 -0.88593,2.1216 -0.22608,-0.126589 -0.21376,-0.03985 0.0319,0.224851 0.22,0.237017 0.38987,0.798144 0.3775,1.246944 -0.0205,0.742835 -0.0471,0.758614 -0.2975,0.176 -0.19492,-0.453603 -0.28157,-0.495542 -0.29751,-0.144 -0.0306,0.674307 0.59743,1.251619 1.1365,1.044758 0.24255,-0.09308 0.44101,-0.02525 0.44101,0.150768 0,0.176 -0.20664,0.399293 -0.45919,0.496205 -0.36659,0.140675 -0.39482,0.409322 -0.13999,1.332208 0.17555,0.635802 0.26535,1.399914 0.19955,1.698032 -0.0658,0.298116 -0.34596,-0.393971 -0.62259,-1.537971 -0.27662,-1.144 -0.51979,-1.717107 -0.54037,-1.273568 -0.0817,1.760848 1.37822,5.986963 2.92594,8.469895 2.66713,4.278755 7.75832,8.217654 12.62987,9.771344 1.19173,0.380077 2.50157,0.823667 2.91076,0.985757 0.40918,0.162086 0.85352,0.226998 0.98741,0.14425 0.1339,-0.08275 0.6631,-0.02496 1.17602,0.128428 1.4953,0.447162 7.74254,0.362794 10.60303,-0.143187 z m -20.79044,-4.505949 c -0.484,-0.262576 -0.88,-0.622486 -0.88,-0.799804 0,-0.205258 0.14534,-0.197581 0.4,0.02112 0.22,0.18894 0.688,0.550038 1.04,0.802438 0.82851,0.594083 0.55769,0.582589 -0.56,-0.02378 z m 2.78652,-0.478784 c -0.11619,-0.188 -0.38702,-0.274368 -0.60185,-0.191929 -0.21483,0.08244 -0.56148,-0.123747 -0.77034,-0.458186 -0.20887,-0.334438 -0.64143,-0.60807 -0.96126,-0.60807 -0.53636,0 -1.18904,-0.5757 -2.26744,-2 -0.78375,-1.035152 0.28992,-0.628452 1.47837,0.56 0.616,0.616 1.21904,1.12 1.34009,1.12 0.29829,0 2.49401,1.890573 2.2148,1.906995 -0.12161,0.0071 -0.31618,-0.140813 -0.43237,-0.32881 z m 33.61348,-5.098185 c -0.10877,-0.176 -0.0453,-0.32 0.14111,-0.32 0.18639,0 0.33889,0.144 0.33889,0.32 0,0.176 -0.0635,0.32 -0.14111,0.32 -0.0776,0 -0.23011,-0.144 -0.33889,-0.32 z m -43.2,-0.96 c -0.10877,-0.176001 -0.0453,-0.320001 0.14112,-0.320001 0.18638,0 0.33888,0.144 0.33888,0.320001 0,0.176 -0.0635,0.32 -0.14111,0.32 -0.0776,0 -0.23011,-0.144 -0.33889,-0.32 z m 44.96,-1.920001 c 0,-0.176 0.1525,-0.32 0.33889,-0.32 0.18638,0 0.24989,0.144 0.14111,0.32 -0.10877,0.176 -0.26127,0.32 -0.33889,0.32 -0.0776,0 -0.14111,-0.144 -0.14111,-0.32 z m -43.91354,-2.914796 c -0.29801,-0.166775 -0.45881,-0.51338 -0.35893,-0.773668 0.0995,-0.259344 0.0188,-0.471536 -0.17939,-0.471536 -0.22018,0 -0.28564,-0.297584 -0.1683,-0.765091 0.10561,-0.420797 0.0635,-0.844522 -0.0936,-0.94161 -0.4796,-0.296403 0.20981,-5.311869 0.92205,-6.707971 0.43255,-0.847866 0.73617,-1.149347 0.8964,-0.89009 0.3291,0.532503 1.33518,-0.458963 1.09661,-1.080678 -0.0982,-0.255815 0.17518,-0.674074 0.63925,-0.978141 0.44591,-0.292173 1.18971,-1.177885 1.6529,-1.968253 0.81097,-1.383808 0.86483,-1.416509 1.45435,-0.883001 0.3367,0.304713 0.60999,0.711708 0.60729,0.904432 -0.003,0.226419 -0.0881,0.237177 -0.24,0.0304 -0.71922,-0.978954 -1.86613,0.0063 -2.21558,1.903251 -0.0631,0.342787 -0.32737,0.858125 -0.58716,1.145197 -0.2598,0.287069 -0.47236,0.668483 -0.47236,0.847584 0,0.179101 -0.23843,0.803597 -0.52986,1.387766 -0.29142,0.58417 -0.5118,1.542295 -0.48974,2.129165 0.0221,0.58687 -0.11553,1.067037 -0.30575,1.067037 -0.21953,0 -0.27186,0.394512 -0.14326,1.08 0.18848,1.004733 0.14383,1.08 -0.64079,1.08 -0.97892,0 -1.52889,0.671894 -1.03603,1.265744 0.44673,0.538285 0.89762,0.228198 0.93733,-0.64463 0.0293,-0.645037 0.05,-0.63713 0.2589,0.09889 0.15474,0.54536 0.0937,0.832931 -0.1919,0.903462 -0.23039,0.05691 -0.4189,0.29713 -0.4189,0.533831 0,0.236701 -0.0826,0.645545 -0.18349,0.908547 -0.1151,0.299923 0.034,0.521239 0.4,0.59368 0.32249,0.06383 0.43729,0.207712 0.25666,0.321655 -0.17976,0.113385 -0.56978,0.0702 -0.86671,-0.09597 z m -2.92683,-2.377316 c -0.23905,-0.622976 0.67008,-1.006185 1.17921,-0.497053 0.28775,0.287754 0.26397,0.446528 -0.10151,0.677591 -0.66358,0.419523 -0.86006,0.386608 -1.0777,-0.180538 z m 52.92037,-3.366774 c 0,-0.186387 0.144,-0.249888 0.32,-0.141114 0.176,0.108775 0.32,0.261274 0.32,0.338887 0,0.07761 -0.144,0.141113 -0.32,0.141113 -0.176,0 -0.32,-0.152499 -0.32,-0.338886 z M 204.78989,45.400806 c -0.52911,-0.847238 -0.50086,-1.284342 0.083,-1.284342 0.264,0 0.48,0.149065 0.48,0.331257 0,0.470135 1.29038,-0.259289 2.09019,-1.181536 0.73095,-0.842845 1.74981,-0.999897 1.74981,-0.269721 0,0.264 -0.144,0.48 -0.32,0.48 -0.176,0 -0.32,-0.144 -0.32,-0.32 0,-0.176 -0.144,-0.32 -0.32,-0.32 -0.176,0 -0.32,0.186774 -0.32,0.415056 0,0.378502 -2.22634,2.784944 -2.57652,2.784944 -0.0822,0 -0.32817,-0.286045 -0.5465,-0.635658 z m 4.92002,-3.063312 c -0.14163,-0.369085 0.26701,-0.708864 1.56982,-1.305315 2.08629,-0.955133 3.00615,-0.860589 1.31796,0.135462 -0.64902,0.382935 -1.26401,0.915072 -1.36664,1.182531 -0.2438,0.635322 -1.27578,0.62672 -1.52114,-0.01267 z m 7.163,-2.399917 c 0,-0.186387 0.144,-0.249888 0.32,-0.141113 0.176,0.108774 0.32,0.261273 0.32,0.338886 0,0.07761 -0.144,0.141114 -0.32,0.141114 -0.176,0 -0.32,-0.1525 -0.32,-0.338887 z m -1.87794,-0.434842 c 0.46313,-0.267824 0.93585,-0.731376 1.05049,-1.030121 0.15959,-0.415875 0.2965,-0.455101 0.58423,-0.167373 0.50449,0.504493 -0.22659,1.22112 -1.51678,1.486775 l -0.96,0.19767 z m 6.40594,-1.450272 c 0.0704,-0.2112 0.2324,-0.3732 0.36,-0.36 0.38263,0.03958 0.30853,0.478493 -0.104,0.616 -0.2112,0.0704 -0.3264,-0.0448 -0.256,-0.256 z m 16.592,-1.474886 c 0,-0.274387 0.144,-0.409888 0.32,-0.301114 0.176,0.108775 0.32,0.333274 0.32,0.498887 0,0.165613 -0.144,0.301113 -0.32,0.301113 -0.176,0 -0.32,-0.224499 -0.32,-0.498886 z m 16.64,40.658888 c 0.792,-0.424093 1.224,-0.776848 0.96,-0.783901 -0.264,-0.007 -1.056,0.341949 -1.76,0.775552 -1.64122,1.010858 -1.08307,1.016682 0.8,0.0084 z m -47.52,-0.623075 c -2.3832,-1.047978 -9.43101,-1.975245 -12.75701,-1.678416 -3.50879,0.313142 -2.42652,0.701468 1.97312,0.707968 2.41114,0.0036 4.95989,0.120224 5.66389,0.259248 0.704,0.139027 1.784,0.318051 2.4,0.397833 0.616,0.07978 1.552,0.274739 2.08,0.433245 1.41314,0.424215 1.73866,0.363242 0.64,-0.119878 z m -17.44,-0.496925 c 0.264,-0.170611 0.336,-0.310199 0.16,-0.310199 -0.176,0 -0.536,0.139588 -0.8,0.310199 -0.264,0.170611 -0.336,0.310198 -0.16,0.310198 0.176,0 0.536,-0.139587 0.8,-0.310198 z M 251.72625,75.9105 c 0.0733,-0.06272 -0.39467,-0.114035 -1.04,-0.114035 -0.64534,0 -1.17334,0.1404 -1.17334,0.312 0,0.275651 1.85339,0.109878 2.21334,-0.197965 z m -6.05334,-1.074035 c 0,-0.176 -0.0635,-0.32 -0.14111,-0.32 -0.0776,0 -0.23011,0.144 -0.33889,0.32 -0.10877,0.176 -0.0453,0.32 0.14111,0.32 0.18639,0 0.33889,-0.144 0.33889,-0.32 z m -53.58954,-23.15131 c -1.13189,-2.237155 -3.44643,-5.03553 -5.98964,-7.241719 -1.70035,-1.475027 -1.50426,-1.20486 1.23651,1.703613 2.05928,2.185293 3.64567,4.205668 4.3132,5.493156 0.58074,1.120083 1.11441,1.977993 1.18593,1.906467 0.0715,-0.07153 -0.26417,-0.90921 -0.746,-1.861517 z m 67.34954,-15.003284 c 0.44,-0.40128 1.06758,-1.143366 1.39462,-1.649078 0.34003,-0.525802 -0.17673,-0.148134 -1.20696,0.882096 -0.99087,0.990867 -2.01444,1.801574 -2.27462,1.801574 -0.26017,0 -0.47304,0.1477 -0.47304,0.328218 0,0.409318 1.48186,-0.379542 2.56,-1.36281 z m -50.88,0.687927 c 0,-0.779856 -0.74776,-0.669623 -0.90346,0.133184 -0.0612,0.315763 0.102,0.533481 0.4,0.533481 0.29684,0 0.50346,-0.2736 0.50346,-0.666665 z m 36.32106,-0.611613 c -0.10819,-0.175053 -0.51268,-0.471184 -0.89888,-0.65807 -0.66525,-0.321917 -0.66245,-0.305178 0.0533,0.318281 0.8153,0.710199 1.16019,0.848784 0.84561,0.339789 z m -34.56106,-1.601722 c 0.10878,-0.176 0.0453,-0.32 -0.14111,-0.32 -0.18639,0 -0.33889,0.144 -0.33889,0.32 0,0.176 0.0635,0.32 0.14112,0.32 0.0776,0 0.23011,-0.144 0.33888,-0.32 z m 16.74346,-2.346517 c 0.14975,-0.772103 -0.47642,-0.657351 -0.68096,0.12479 -0.1095,0.418746 -0.0357,0.612867 0.20268,0.533485 0.20615,-0.06864 0.42138,-0.364858 0.47828,-0.658275 z m 34.93654,0.106518 c 0.18838,-0.352 0.27052,-0.64 0.18252,-0.64 -0.088,0 -0.31414,0.288 -0.50252,0.64 -0.18838,0.352 -0.27052,0.64 -0.18252,0.64 0.088,0 0.31414,-0.288 0.50252,-0.64 z m -31.04,-0.04204 c 0,-0.451405 -0.88849,-0.697722 -1.52,-0.421392 -0.308,0.134771 -0.6787,0.218611 -0.82378,0.186307 -0.14509,-0.0323 -0.18149,0.07444 -0.0809,0.237197 0.23928,0.387158 2.42468,0.385254 2.42468,-0.0022 z m -12.32,-0.277959 c 0.10878,-0.176 0.0453,-0.32 -0.14111,-0.32 -0.18639,0 -0.33889,0.144 -0.33889,0.32 0,0.176 0.0635,0.32 0.14112,0.32 0.0776,0 0.23011,-0.144 0.33888,-0.32 z m 47.81261,-12.800001 c 0.0156,-0.426667 -0.0169,-0.426667 -0.29261,0 -0.17061,0.264 -0.30228,0.768 -0.29261,1.12 l 0.0176,0.64 0.27502,-0.64 c 0.15126,-0.352 0.28293,-0.856 0.29261,-1.12 z m 0.93554,-4.64 c -0.003,-0.927042 -0.0115,-0.932535 -0.24579,-0.16 -0.13345,0.44 -0.3328,1.376 -0.443,2.08 l -0.20036,1.28 0.44615,-1.12 c 0.24539,-0.616 0.44474,-1.552 0.443,-2.08 z m 0.37185,-1.261115 c 0,-0.07761 -0.144,-0.230111 -0.32,-0.338885 -0.176,-0.108775 -0.32,-0.04527 -0.32,0.141114 0,0.186387 0.144,0.338886 0.32,0.338886 0.176,0 0.32,-0.0635 0.32,-0.141115 z m -0.0994,-2.338886 c -0.0805,-0.308 -0.14635,-0.056 -0.14635,0.559999 0,0.616 0.0659,0.868 0.14635,0.56 0.0805,-0.308 0.0805,-0.812 0,-1.119999 z m 1.31761,-8.8884685 c -0.0985,-0.09852 -0.27746,0.07908 -0.39763,0.394667 -0.17365,0.4560634 -0.1369,0.4928204 0.17914,0.1791344 0.21869,-0.2170674 0.31701,-0.4752774 0.21849,-0.5738014 z M 3.7529252,256.79566 c 0,-0.0665 0.252,-0.31845 0.56,-0.56 0.507538,-0.39804 0.518856,-0.38672 0.120817,0.12082 -0.418038,0.53304 -0.680817,0.70255 -0.680817,0.43918 z M 16.072925,244.75648 c 0.318556,-0.352 0.651192,-0.64 0.739192,-0.64 0.088,0 -0.100636,0.288 -0.419192,0.64 -0.318555,0.352 -0.651192,0.64 -0.739192,0.64 -0.088,0 0.100637,-0.288 0.419192,-0.64 z m 1.6,-1.6 c 0.318556,-0.352 0.651192,-0.64 0.739192,-0.64 0.088,0 -0.100636,0.288 -0.419192,0.64 -0.318555,0.352 -0.651192,0.64 -0.739192,0.64 -0.088,0 0.100637,-0.288 0.419192,-0.64 z m 3.04,-2.59318 c 0,-0.0786 1.087238,-1.21923 2.416085,-2.53483 1.328847,-1.31559 2.316777,-2.17599 2.1954,-1.91199 -0.221415,0.48159 -4.611485,4.7149 -4.611485,4.44682 z m 5.12,-4.94079 c 0,-0.2178 1.139588,-1.35046 2.4,-2.3854 0.528,-0.43355 0.245413,-0.0351 -0.627971,0.88554 -1.583854,1.66949 -1.772029,1.82876 -1.772029,1.49986 z m 3.52,-3.44616 c 0,-0.0551 0.458785,-0.52307 1.019521,-1.04 l 1.019522,-0.93987 -0.779522,1.02229 c -0.662174,0.8684 -1.259521,1.32255 -1.259521,0.95758 z m 2.27623,-1.97987 c 0.06807,-0.176 1.174992,-1.3226 2.459818,-2.548 1.284825,-1.22539 2.236755,-2.01739 2.115401,-1.76 -0.256976,0.54504 -4.759584,4.78467 -4.575219,4.308 z m 5.08377,-4.76839 c 0,-0.10539 0.267638,-0.44361 0.594755,-0.75161 0.327113,-0.308 1.496217,-1.424 2.598003,-2.48 1.101789,-1.056 1.95015,-1.75684 1.885248,-1.55743 -0.135914,0.41759 -5.078006,5.07845 -5.078006,4.78904 z m 7.029067,-6.69949 c 0.961987,-0.99667 1.789987,-1.81212 1.84,-1.81212 0.441837,0 -0.210317,0.77222 -1.749069,2.07109 l -1.839999,1.55316 z m 2.250931,-1.90064 c 0,-0.23957 14.234374,-13.30841 20.640001,-18.94996 1.584,-1.39506 2.951999,-2.6172 3.039999,-2.71586 0.088,-0.0986 2.32,-2.04628 4.96,-4.32806 2.64,-2.28177 6.035818,-5.23068 7.546259,-6.55314 4.624566,-4.049 8.613741,-7.41733 8.613741,-7.27317 0,0.0753 -3.086499,2.83228 -6.858886,6.12657 -3.772387,3.29429 -7.206557,6.30293 -7.631485,6.68587 -0.424928,0.38295 -1.118429,0.98852 -1.54111,1.34572 -0.422685,0.3572 -1.566675,1.3652 -2.542202,2.24 -0.975526,0.8748 -2.844816,2.52655 -4.153977,3.67055 -2.867376,2.50563 -5.466461,4.8362 -5.908641,5.29822 -0.178035,0.18601 -1.403699,1.26601 -2.723699,2.4 -1.32,1.13398 -2.778755,2.42178 -3.241674,2.86178 -0.462921,0.44 -2.118668,1.952 -3.67944,3.36 -1.560767,1.408 -3.666015,3.33792 -4.678323,4.28871 -1.01231,0.95079 -1.840563,1.64504 -1.840563,1.54277 z m 45.44,-40.34425 c 0,-0.30009 7.376403,-6.6975 7.537113,-6.53679 0.131942,0.13195 -1.29247,1.40715 -6.655152,5.958 -0.485078,0.41165 -0.881961,0.6721 -0.881961,0.57879 z m 28.319997,-10.44723 c 0.10877,-0.176 0.34177,-0.32 0.51777,-0.32 0.176,0 0.231,0.144 0.12223,0.32 -0.10878,0.176 -0.34177,0.32 -0.51777,0.32 -0.176,0 -0.23101,-0.144 -0.12223,-0.32 z m -2.54186,-0.71121 c -0.74794,-1.06783 -0.59944,-1.42388 0.18038,-0.4325 0.37529,0.47711 0.87582,0.7869 1.12,0.6932 0.24281,-0.0932 0.44148,-0.0299 0.44148,0.14055 0,0.59272 -1.24683,0.30551 -1.74186,-0.40125 z m -4.75038,-1.13807 c -1.03382,-1.07907 -1.08845,-1.34852 -0.22776,-1.12344 0.352,0.0921 0.64,0.28312 0.64,0.42461 0,0.14149 0.432,0.35214 0.96,0.46811 0.86978,0.19103 1.37688,0.8 0.66617,0.8 -0.16161,0 -0.49111,0.0757 -0.73224,0.16823 -0.24113,0.0925 -0.82891,-0.23935 -1.30617,-0.73751 z m 10.33713,0.68846 c 0.01,-0.55046 0.55326,-1.1505 0.75158,-0.82961 0.10806,0.17485 -0.0179,0.49586 -0.28,0.71335 -0.26206,0.21749 -0.47427,0.26981 -0.47158,0.11626 z m -9.28489,-1.66585 c 0,-0.45088 0.36044,-0.65773 0.83128,-0.47705 0.66782,0.25627 0.54245,0.74372 -0.19128,0.74372 -0.352,0 -0.64,-0.12 -0.64,-0.26667 z m 3.84,-0.76588 c 0,-0.58334 0.5673,-1.06682 0.88224,-0.75188 0.10981,0.10981 -0.0438,0.44309 -0.34129,0.74062 -0.49886,0.49886 -0.54095,0.49974 -0.54095,0.0113 z m -2.496,-0.31145 c -0.2112,-0.2112 -0.384,-0.58661 -0.384,-0.83424 0,-0.27993 -0.19232,-0.37644 -0.50843,-0.25514 -0.28213,0.10827 -0.87105,-0.0901 -1.32315,-0.44576 -0.44811,-0.35247 -1.00236,-0.64086 -1.23169,-0.64086 -0.22933,0 -0.39527,-0.288 -0.36875,-0.64 0.0265,-0.352 0.17006,-0.64 0.319,-0.64 0.14893,0 0.18846,-0.13321 0.0878,-0.29602 -0.22814,-0.36913 0.46486,-1.94398 0.85543,-1.94398 0.15813,0 0.19634,0.18 0.0849,0.4 -0.11144,0.22 0.0139,0.13433 0.2786,-0.19038 0.36567,-0.44861 0.71713,-0.53855 1.46373,-0.37457 0.92864,0.20396 0.98252,0.29921 0.98252,1.73704 0,1.86025 0.22219,2.13305 0.98907,1.2143 l 0.58963,-0.70639 0.0107,1.05589 c 0.0108,1.07177 -0.76099,2.94411 -1.21358,2.94411 -0.13628,0 -0.42058,-0.1728 -0.63178,-0.384 z m -1.344,-1.77903 c 0,-0.13366 -0.288,-0.42288 -0.64,-0.64271 -0.70069,-0.43759 -0.8678,-0.11006 -0.256,0.50174 0.43343,0.43343 0.896,0.50621 0.896,0.14097 z m 1.0815,-1.49268 c -0.0487,-1.50373 -0.44491,-1.92635 -1.25245,-1.33586 -0.59561,0.43552 -0.59752,0.49073 -0.0563,1.6257 0.69533,1.45811 1.36056,1.31078 1.30875,-0.28984 z m 4.0385,3.35459 c 0,-0.16561 0.14235,-0.38909 0.31633,-0.49662 0.1814,-0.11211 0.23504,0.0164 0.12576,0.30112 -0.21273,0.55437 -0.44209,0.6558 -0.44209,0.1955 z m 7.04,-0.27031 c 0,-0.8488 -0.4819,-0.92542 -0.93437,-0.14857 -0.1794,0.308 -0.34125,0.488 -0.35968,0.4 -0.28412,-1.35659 -0.24077,-1.61237 0.32453,-1.91491 0.34297,-0.18355 0.73742,-0.31474 0.87655,-0.29152 0.71526,0.11936 1.05297,-0.0967 1.05297,-0.67357 0,-0.67491 -0.46557,-0.86114 -0.8,-0.32 -0.29891,0.48363 -0.8,0.38341 -0.8,-0.16 0,-0.32434 0.32452,-0.48 1.00071,-0.48 h 1.00071 l -0.15603,1.62389 c -0.16377,1.70433 -1.20539,3.40209 -1.20539,1.96468 z m -13.76,-0.0343 c 0,-0.15717 0.22777,-0.37317 0.50617,-0.48 0.68095,-0.2613 0.67943,-0.26179 0.88955,0.28577 0.13307,0.34678 -0.035,0.48 -0.60577,0.48 -0.43447,0 -0.78995,-0.1286 -0.78995,-0.28577 z m 12.22415,-5.92654 c 0.11483,-1.56677 0.68886,-1.70672 1.66081,-0.4049 0.67121,0.89901 0.67136,0.90429 0.0345,1.26327 -0.35172,0.19827 -0.89862,0.38047 -1.21534,0.4049 -0.48178,0.0372 -0.56019,-0.16919 -0.48,-1.26327 z m -2.43541,0.48408 c -0.38506,-0.4255 -0.44163,-0.67548 -0.1883,-0.83205 0.4333,-0.26779 0.49518,-0.21074 0.78137,0.72028 0.27029,0.87935 0.12617,0.90651 -0.59307,0.11177 z m -10.75828,-0.33395 c 0.18314,-0.3422 0.49114,-0.71993 0.68445,-0.8394 0.19331,-0.11947 0.10397,0.16051 -0.19852,0.62218 -0.64052,0.97755 -0.9722,1.12582 -0.48593,0.21722 z m 6.08954,-0.65782 c 0,-0.176 0.144,-0.32 0.32,-0.32 0.176,0 0.32,0.144 0.32,0.32 0,0.176 -0.144,0.32 -0.32,0.32 -0.176,0 -0.32,-0.144 -0.32,-0.32 z m -2.6617,-0.20836 c -0.1146,-0.1146 0.0414,-0.39544 0.34667,-0.62409 0.49625,-0.3717 0.47032,-0.39789 -0.24497,-0.24733 l -0.8,0.1684 0.75545,-0.66431 c 0.92267,-0.81136 1.26747,-0.84111 1.20899,-0.10431 -0.0285,0.35945 0.16398,0.54277 0.53756,0.51188 0.39221,-0.0324 0.52265,0.10656 0.4,0.42618 -0.1001,0.26085 -0.182,0.5345 -0.182,0.60811 0,0.21829 -1.79505,0.15212 -2.0217,-0.0745 z m 4.7417,-1.07164 c -0.10878,-0.176 -0.0453,-0.32 0.14111,-0.32 0.18639,0 0.33889,0.144 0.33889,0.32 0,0.176 -0.0635,0.32 -0.14112,0.32 -0.0776,0 -0.23011,-0.144 -0.33888,-0.32 z m 4.32,-0.17005 c 0,-0.51756 0.50003,-0.6353 0.77927,-0.18348 0.0974,0.15755 -0.0381,0.36903 -0.30111,0.46995 -0.29045,0.11146 -0.47816,-0.001 -0.47816,-0.28647 z m -4.14834,-1.2559 c -0.31033,-0.37393 -0.20504,-0.44765 0.6064,-0.42458 1.14459,0.0325 1.19862,0.11204 0.37554,0.55254 -0.4462,0.2388 -0.70561,0.20499 -0.98194,-0.12796 z m 11.51386,-12.19419 c 0.007,-0.38542 1.5674,-1.87361 1.7612,-1.67981 0.0806,0.0806 -0.2839,0.55905 -0.81006,1.06314 -0.52617,0.5041 -0.95418,0.7816 -0.95114,0.61667 z"
       id="path845" />
  </g>
</svg>
